# xmcd CD database file
#
# Track frame offsets:
#	150
#	14952
#	29450
#	55320
#	72697
#	133245
#	160047
#	195740
#	216580
#	229232
#	244257
#	286550
#	304075
#
# Disc length: 4598 seconds
#
# Revision: 15
# Processed by: cddbd v1.5.2PL0 Copyright (c) Steve Scherf et al.
# Submitted via: CDex 1.70beta2
#
DISCID=cc11f40d
DTITLE=Miles Davis - We Want Miles #1
DYEAR=2001
DGENRE=Jazz
TTITLE0=Now's The Time
TTITLE1=Jeru
TTITLE2=Compulsion
TTITLE3=Tempus Fugit
TTITLE4=Walkin'
TTITLE5='Round Midnight
TTITLE6=Bye Bye Blackbird
TTITLE7=New Rhumba
TTITLE8=Generique
TTITLE9=Summertime
TTITLE10=So What
TTITLE11=The Pan Piper
TTITLE12=Someday My Prince Will Come
EXTD=YEAR: 2001
EXTT0=
EXTT1=
EXTT2=
EXTT3=
EXTT4=
EXTT5=
EXTT6=
EXTT7=
EXTT8=
EXTT9=
EXTT10=
EXTT11=
EXTT12=
PLAYORDER=
